<?xml version="1.0" encoding="UTF-8"?>
<svg width="170px" height="35px" viewBox="0 0 170 35" version="1.1" xmlns="http://www.w3.org/2000/svg" xmlns:xlink="http://www.w3.org/1999/xlink" xmlns:sketch="http://www.bohemiancoding.com/sketch/ns">
    <!-- Generator: Sketch 3.4.2 (15855) - http://www.bohemiancoding.com/sketch -->
    <title>logo-white</title>
    <desc>Created with Sketch.</desc>
    <defs></defs>
    <g id="Page-1" stroke="none" stroke-width="1" fill="none" fill-rule="evenodd" sketch:type="MSPage">
        <path d="M20.0234375,25.0664062 C18.0898341,26.8359463 15.6172026,27.7207031 12.6054688,27.7207031 C8.87888762,27.7207031 5.94922941,26.5254026 3.81640625,24.1347656 C1.68358309,21.7324099 0.6171875,18.439474 0.6171875,14.2558594 C0.6171875,9.73239926 1.830066,6.246106 4.25585938,3.796875 C6.36524492,1.66405184 9.04881184,0.59765625 12.3066406,0.59765625 C16.6660374,0.59765625 19.8535055,2.02732945 21.8691406,4.88671875 C22.9824274,6.49219553 23.5800777,8.10350754 23.6621094,9.72070312 L18.2480469,9.72070312 C17.8964826,8.47850941 17.4453153,7.54101879 16.8945312,6.90820312 C15.9101513,5.7831975 14.4511815,5.22070312 12.5175781,5.22070312 C10.5488183,5.22070312 8.99609943,6.0146405 7.859375,7.60253906 C6.72265057,9.19043763 6.15429688,11.4374855 6.15429688,14.34375 C6.15429688,17.2500145 6.75487681,19.4267506 7.95605469,20.8740234 C9.15723257,22.3212963 10.6835845,23.0449219 12.5351562,23.0449219 C14.4336032,23.0449219 15.8808544,22.4238343 16.8769531,21.1816406 C17.4277371,20.5136685 17.8847638,19.5117254 18.2480469,18.1757812 L23.609375,18.1757812 C23.1406227,21.0000141 21.9453221,23.2968662 20.0234375,25.0664062 L20.0234375,25.0664062 Z M37.1445312,23.2558594 C38.4218814,23.2558594 39.4589804,23.1152358 40.2558594,22.8339844 C41.7675857,22.2949192 42.5234375,21.2929761 42.5234375,19.828125 C42.5234375,18.972652 42.1484413,18.3105492 41.3984375,17.8417969 C40.6484337,17.3847633 39.4707112,16.9804705 37.8652344,16.6289062 L35.1230469,16.0136719 C32.4277209,15.4042938 30.5644583,14.7421911 29.5332031,14.0273438 C27.7871006,12.8320253 26.9140625,10.9629033 26.9140625,8.41992188 C26.9140625,6.09959777 27.7578041,4.17188268 29.4453125,2.63671875 C31.1328209,1.10155482 33.6113118,0.333984375 36.8808594,0.333984375 C39.6113418,0.333984375 41.94042,1.05760995 43.8681641,2.50488281 C45.7959081,3.95215567 46.8066402,6.05272061 46.9003906,8.80664062 L41.6972656,8.80664062 C41.6035152,7.24803908 40.9238345,6.14062828 39.6582031,5.484375 C38.8144489,5.05077908 37.7656313,4.83398438 36.5117188,4.83398438 C35.1171805,4.83398438 34.0039104,5.11523156 33.171875,5.67773438 C32.3398396,6.24023719 31.9238281,7.02538559 31.9238281,8.03320312 C31.9238281,8.958989 32.3339803,9.65038834 33.1542969,10.1074219 C33.6816433,10.4121109 34.806632,10.7695292 36.5292969,11.1796875 L40.9941406,12.2519531 C42.9511817,12.7207055 44.4277294,13.3476523 45.4238281,14.1328125 C46.9707109,15.3515686 47.7441406,17.1152228 47.7441406,19.4238281 C47.7441406,21.7910275 46.8388762,23.7568281 45.0283203,25.3212891 C43.2177644,26.88575 40.6601728,27.6679688 37.3554688,27.6679688 C33.9804519,27.6679688 31.3261815,26.8974686 29.3925781,25.3564453 C27.4589747,23.815422 26.4921875,21.6972791 26.4921875,19.0019531 L31.6601562,19.0019531 C31.8242196,20.1855528 32.146482,21.0703096 32.6269531,21.65625 C33.5058638,22.7226616 35.0117081,23.2558594 37.1445312,23.2558594 L37.1445312,23.2558594 Z M76.9589844,1.08984375 L82.4609375,1.08984375 L75.1660156,27 L69.9980469,27 L66.8691406,11.8476562 L65.9550781,6.83789062 L65.0410156,11.8476562 L61.9121094,27 L56.8847656,27 L49.5371094,1.08984375 L55.2851562,1.08984375 L58.7128906,15.9257812 L59.4511719,20.0566406 L60.2070312,16.0136719 L63.125,1.08984375 L68.8378906,1.08984375 L71.9140625,15.9257812 L72.7050781,20.0566406 L73.4960938,16.0839844 L76.9589844,1.08984375 Z M98.9316406,21.6738281 L89.3867188,21.6738281 L87.59375,27 L81.9335938,27 L91.1796875,1.08984375 L97.296875,1.08984375 L106.472656,27 L100.601562,27 L98.9316406,21.6738281 Z M97.4199219,17.2089844 L94.1855469,7.01367188 L90.8457031,17.2089844 L97.4199219,17.2089844 Z M125.404297,9.89648438 C126.95118,11.5488364 127.724609,13.9745934 127.724609,17.1738281 C127.724609,20.548845 126.965828,23.1210849 125.448242,24.890625 C123.930656,26.6601651 121.976574,27.5449219 119.585938,27.5449219 C118.062492,27.5449219 116.79688,27.1640663 115.789062,26.4023438 C115.238278,25.9804666 114.699221,25.3652384 114.171875,24.5566406 L114.171875,34.5410156 L109.214844,34.5410156 L109.214844,7.83984375 L114.013672,7.83984375 L114.013672,10.6699219 C114.552737,9.83788646 115.12695,9.18164303 115.736328,8.70117188 C116.849615,7.84569885 118.17382,7.41796875 119.708984,7.41796875 C121.947277,7.41796875 123.845695,8.24413236 125.404297,9.89648438 L125.404297,9.89648438 Z M122.556641,17.4199219 C122.556641,15.943352 122.21973,14.6367244 121.545898,13.5 C120.872067,12.3632756 119.779304,11.7949219 118.267578,11.7949219 C116.451163,11.7949219 115.203128,12.6562414 114.523438,14.3789062 C114.171873,15.2929733 113.996094,16.453118 113.996094,17.859375 C113.996094,20.0859486 114.587885,21.6503861 115.771484,22.5527344 C116.474613,23.0800808 117.306636,23.34375 118.267578,23.34375 C119.662116,23.34375 120.725582,22.8046929 121.458008,21.7265625 C122.190433,20.6484321 122.556641,19.2128996 122.556641,17.4199219 L122.556641,17.4199219 Z M147.394531,9.89648438 C148.941414,11.5488364 149.714844,13.9745934 149.714844,17.1738281 C149.714844,20.548845 148.956062,23.1210849 147.438477,24.890625 C145.920891,26.6601651 143.966809,27.5449219 141.576172,27.5449219 C140.052727,27.5449219 138.787114,27.1640663 137.779297,26.4023438 C137.228513,25.9804666 136.689456,25.3652384 136.162109,24.5566406 L136.162109,34.5410156 L131.205078,34.5410156 L131.205078,7.83984375 L136.003906,7.83984375 L136.003906,10.6699219 C136.542971,9.83788646 137.117184,9.18164303 137.726562,8.70117188 C138.839849,7.84569885 140.164055,7.41796875 141.699219,7.41796875 C143.937511,7.41796875 145.83593,8.24413236 147.394531,9.89648438 L147.394531,9.89648438 Z M144.546875,17.4199219 C144.546875,15.943352 144.209964,14.6367244 143.536133,13.5 C142.862301,12.3632756 141.769539,11.7949219 140.257812,11.7949219 C138.441397,11.7949219 137.193363,12.6562414 136.513672,14.3789062 C136.162108,15.2929733 135.986328,16.453118 135.986328,17.859375 C135.986328,20.0859486 136.578119,21.6503861 137.761719,22.5527344 C138.464847,23.0800808 139.29687,23.34375 140.257812,23.34375 C141.652351,23.34375 142.715817,22.8046929 143.448242,21.7265625 C144.180668,20.6484321 144.546875,19.2128996 144.546875,17.4199219 L144.546875,17.4199219 Z M166.537109,8.71875 C168.037117,9.6796923 168.898436,11.3320195 169.121094,13.6757812 L164.111328,13.6757812 C164.041015,13.0312468 163.859376,12.5214863 163.566406,12.1464844 C163.015622,11.4667935 162.078132,11.1269531 160.753906,11.1269531 C159.664057,11.1269531 158.887698,11.2968733 158.424805,11.6367188 C157.961912,11.9765642 157.730469,12.3749977 157.730469,12.8320312 C157.730469,13.4062529 157.97656,13.8222643 158.46875,14.0800781 C158.96094,14.3496107 160.701157,14.8124967 163.689453,15.46875 C165.681651,15.9375023 167.175776,16.6464796 168.171875,17.5957031 C169.156255,18.5566454 169.648438,19.7578053 169.648438,21.1992188 C169.648438,23.0976657 168.94239,24.6474549 167.530273,25.8486328 C166.118157,27.0498107 163.935562,27.6503906 160.982422,27.6503906 C157.970688,27.6503906 155.747077,27.0146548 154.311523,25.7431641 C152.875969,24.4716733 152.158203,22.8515723 152.158203,20.8828125 L157.238281,20.8828125 C157.343751,21.773442 157.572264,22.4062481 157.923828,22.78125 C158.544925,23.4492221 159.693351,23.7832031 161.369141,23.7832031 C162.353521,23.7832031 163.135739,23.6367202 163.71582,23.34375 C164.295901,23.0507798 164.585938,22.6113311 164.585938,22.0253906 C164.585938,21.4628878 164.351565,21.0351577 163.882812,20.7421875 C163.41406,20.4492173 161.673843,19.9453161 158.662109,19.2304688 C156.49413,18.6914036 154.964848,18.0175822 154.074219,17.2089844 C153.183589,16.4121054 152.738281,15.2636794 152.738281,13.7636719 C152.738281,11.9941318 153.43261,10.4736392 154.821289,9.20214844 C156.209968,7.93065771 158.16405,7.29492188 160.683594,7.29492188 C163.074231,7.29492188 165.025383,7.7695265 166.537109,8.71875 L166.537109,8.71875 Z" id="logo-white" fill="#FFFFFF" sketch:type="MSShapeGroup"></path>
    </g>
</svg>